<svg width="41" height="29" fill="none" xmlns="http://www.w3.org/2000/svg"><path d="M9.467.293C4.247.293 0 4.54 0 9.76c0 2.496.963 4.851 2.712 6.632a9.409 9.409 0 006.34 2.825c.012.15.02.357.02.64 0 1.161-.882 4.707-1.439 6.67l-.57 2.008h6.91l.463-.745c.184-.296 4.497-7.369 4.497-18.03 0-5.22-4.246-9.467-9.466-9.467zm2.697 25.087h-.957c.453-1.782 1.02-4.264 1.02-5.523 0-.999-.073-1.801-.436-2.471-.322-.597-.997-1.308-2.38-1.315l-.07-.002c-3.41-.066-6.185-2.896-6.185-6.31a6.318 6.318 0 016.31-6.31 6.318 6.318 0 016.312 6.31c0 7.836-2.59 13.635-3.614 15.62zM30.925.293c-5.22 0-9.467 4.247-9.467 9.467 0 2.496.963 4.851 2.712 6.632a9.409 9.409 0 006.34 2.825c.012.15.02.357.02.64 0 1.161-.882 4.707-1.439 6.67l-.57 2.008h6.91l.463-.745c.184-.296 4.497-7.369 4.497-18.03 0-5.22-4.246-9.467-9.466-9.467zm2.697 25.087h-.957c.453-1.782 1.02-4.264 1.02-5.523 0-.999-.073-1.801-.436-2.471-.322-.597-.997-1.308-2.38-1.315l-.07-.002c-3.41-.066-6.185-2.896-6.185-6.31a6.318 6.318 0 016.31-6.31 6.318 6.318 0 016.312 6.31c0 7.836-2.59 13.635-3.614 15.62z" fill="#000" fill-opacity=".05"/></svg>